<?xml version="1.0" standalone="no"?>
<!DOCTYPE svg PUBLIC "-//W3C//DTD SVG 20010904//EN"
 "http://www.w3.org/TR/2001/REC-SVG-20010904/DTD/svg10.dtd">
<svg version="1.0" xmlns="http://www.w3.org/2000/svg"
 width="17717.000000pt" height="10630.000000pt" viewBox="0 0 17717.000000 10630.000000"
 preserveAspectRatio="xMidYMid meet">
<metadata>
Created by potrace 1.16, written by Peter Selinger 2001-2019
</metadata>
<g transform="translate(0.000000,10630.000000) scale(0.100000,-0.100000)"
fill="#000000" stroke="none">
<path d="M88565 96623 c-658 -8 -1470 -50 -2160 -114 -6943 -636 -13364 -3904
-18009 -9163 -2325 -2633 -4133 -5709 -5294 -9006 -1250 -3550 -1749 -7295
-1481 -11105 143 -2039 529 -4115 1125 -6050 114 -368 235 -733 247 -743 7 -6
1009 -339 2227 -742 1218 -402 2532 -836 2920 -965 388 -129 1369 -453 2180
-720 2047 -675 4935 -1629 11040 -3647 7873 -2601 8391 -2772 10590 -3498
1119 -369 2177 -718 2350 -775 173 -58 699 -224 1169 -369 l855 -265 330 231
c182 128 599 422 926 653 327 232 1167 826 1865 1320 1629 1153 3516 2489
5785 4099 1709 1212 3207 2275 7950 5641 1985 1409 2150 1525 2169 1525 5 0
11 4 13 8 2 5 71 50 153 101 83 51 151 94 152 95 5 4 92 404 142 646 562 2751
689 5674 370 8525 -182 1631 -512 3251 -979 4806 -70 232 -251 801 -286 899
-13 36 -58 164 -100 285 -347 1005 -832 2151 -1340 3168 -2324 4648 -5940
8559 -10399 11247 -2534 1527 -5293 2630 -8180 3269 -1550 343 -3082 544
-4740 621 -256 12 -1129 31 -1290 28 -60 -2 -195 -4 -300 -5z m435 -10853
c1935 -105 3634 -453 5315 -1090 284 -107 786 -314 885 -365 14 -7 93 -43 175
-80 198 -90 370 -174 735 -361 113 -58 211 -110 218 -116 7 -6 34 -22 60 -34
26 -13 54 -28 62 -33 8 -5 89 -51 180 -102 1007 -566 2033 -1311 2980 -2167
389 -351 1027 -1004 1411 -1442 1221 -1395 2275 -3049 3096 -4859 893 -1971
1409 -3836 1593 -5766 56 -587 74 -1058 67 -1710 -6 -511 -12 -672 -87 -2125
-22 -426 -45 -887 -51 -1025 -7 -137 -13 -251 -13 -252 -1 -1 -112 26 -247 62
-134 35 -2683 703 -5664 1484 -7222 1892 -25533 6688 -25566 6696 l-25 6 23
222 c151 1466 384 2699 718 3792 249 813 527 1507 922 2295 267 535 516 968
818 1427 482 730 958 1316 1555 1914 461 463 866 810 1380 1184 170 124 569
393 640 431 19 10 37 22 40 25 9 10 185 116 365 219 1528 876 3336 1441 5325
1664 547 62 972 92 1680 120 171 7 1221 -3 1410 -14z m13585 -6136 c1302
-1057 2453 -2427 3373 -4015 1298 -2240 2041 -4685 2217 -7294 32 -487 38
-705 35 -1300 -6 -1081 -7 -1032 13 -1115 27 -115 68 -193 140 -264 120 -119
242 -163 662 -240 1067 -196 2116 -450 3230 -783 121 -36 222 -68 225 -70 7
-7 24 -10 -790 112 -1234 184 -1637 254 -2805 484 -825 163 -1110 216 -1495
280 -168 28 -341 62 -385 76 -179 54 -275 154 -311 324 -16 75 -17 272 -4 491
5 80 14 362 21 626 33 1272 -61 2599 -271 3855 -448 2670 -1456 5210 -2995
7544 -218 331 -319 475 -693 985 -167 228 -298 410 -291 404 8 -6 64 -50 124
-100z m-28575 -8108 c47 -8 1071 -273 2275 -589 4041 -1062 6683 -1755 16120
-4227 7629 -1998 11513 -3016 12150 -3185 410 -108 683 -198 678 -222 -2 -11
-183 -295 -256 -403 -64 -94 -476 -665 -2932 -4060 -2727 -3769 -4225 -5844
-5303 -7345 -238 -330 -461 -632 -497 -672 -81 -89 -167 -147 -258 -174 -59
-18 -85 -21 -166 -16 -53 3 -123 13 -156 22 -51 14 -2105 693 -5145 1700
-2624 870 -9354 3093 -17830 5890 -7835 2586 -8741 2885 -8890 2942 -190 72
-393 154 -404 164 -8 8 282 306 1506 1549 643 653 2657 2664 5423 5414 1117
1111 2237 2227 2490 2481 253 254 489 488 525 520 213 190 413 253 670 211z
m34310 -7281 c4736 -782 5730 -950 5717 -961 -13 -13 -438 -316 -7967 -5682
-2604 -1857 -5266 -3754 -5915 -4217 -649 -463 -1254 -894 -1344 -958 l-164
-116 -28 20 c-16 11 -31 25 -35 30 -11 18 209 335 763 1102 295 408 1313 1815
2262 3127 2062 2851 3106 4295 3719 5145 251 347 545 748 655 893 254 336 369
508 462 694 122 245 172 428 182 668 7 179 -15 338 -73 533 -5 14 -1 17 18 12
13 -3 799 -133 1748 -290z"/>
<path d="M87390 80689 c-1791 -105 -3337 -652 -4695 -1664 -490 -365 -975
-825 -1382 -1312 -879 -1051 -1498 -2355 -1767 -3720 -48 -245 -64 -357 -75
-530 -24 -390 47 -677 222 -899 89 -111 178 -185 362 -300 89 -55 312 -145
490 -198 66 -19 2129 -537 4585 -1151 6051 -1511 8041 -2014 10670 -2700 929
-242 1081 -281 1221 -309 794 -163 1318 -89 1615 226 204 217 310 541 344
1058 18 277 8 975 -20 1335 -127 1632 -625 3168 -1502 4630 -115 192 -405 628
-539 812 -1447 1978 -3466 3459 -5734 4206 -901 297 -1775 463 -2719 517 -203
11 -874 11 -1076 -1z m-6307 -5205 c21 -3 41 -13 44 -20 3 -8 -13 -161 -36
-341 -60 -487 -66 -554 -65 -838 0 -279 8 -353 60 -531 93 -322 308 -568 635
-726 215 -104 -109 -22 7054 -1798 6297 -1561 9136 -2269 9146 -2279 6 -6 -26
-189 -34 -198 -6 -6 -316 34 -412 53 -44 9 -2152 533 -4685 1166 -5322 1328
-9012 2247 -10635 2648 -627 154 -1194 297 -1260 316 -209 61 -356 158 -414
272 -53 105 -63 255 -26 412 13 51 523 1816 541 1869 2 8 13 11 27 8 12 -3 39
-9 60 -13z"/>
<path d="M143688 49727 l-3258 -1692 0 -115 0 -116 41 -39 c23 -22 69 -76 104
-120 474 -604 781 -1656 930 -3185 37 -385 57 -687 87 -1315 16 -339 24
-11549 9 -12746 -17 -1336 -45 -2103 -102 -2844 -78 -1011 -234 -1857 -441
-2386 -51 -130 -52 -137 -56 -251 l-3 -118 3375 0 3376 0 0 114 c0 111 -1 117
-44 228 -273 706 -430 1732 -501 3258 -54 1188 -55 1324 -55 12558 l0 10462
-102 -1 -103 -1 -3257 -1691z"/>
<path d="M110295 51234 c-16 -2 -86 -9 -155 -15 -379 -33 -827 -141 -1192
-287 -966 -387 -1843 -1192 -2230 -2044 -197 -436 -288 -863 -288 -1358 0
-731 206 -1288 635 -1715 60 -61 157 -145 215 -188 58 -43 112 -84 121 -91 9
-8 20 -15 25 -17 5 -2 60 -33 123 -69 63 -35 140 -75 170 -88 481 -202 885
-271 1501 -259 588 12 1064 104 1568 303 978 387 1856 1190 2249 2058 194 429
283 853 283 1348 0 297 -29 526 -97 763 -233 816 -917 1412 -1836 1599 -247
51 -340 59 -712 61 -192 2 -363 1 -380 -1z"/>
<path d="M118861 47605 l-2232 -3215 -1335 0 -1334 0 0 -200 0 -199 98 -31
c53 -17 540 -168 1082 -337 542 -168 987 -307 989 -309 1 -1 -6 -299 -18 -661
-133 -4125 -207 -7723 -227 -10973 -9 -1468 9 -1995 91 -2749 83 -757 211
-1371 410 -1966 328 -985 801 -1676 1440 -2108 33 -22 62 -43 65 -47 3 -4 12
-9 20 -13 8 -3 60 -33 115 -66 454 -271 1035 -437 1715 -491 186 -15 663 -16
850 -1 756 60 1427 262 1996 602 45 27 86 49 92 49 6 0 12 3 14 8 2 4 48 37
103 74 240 159 438 322 684 563 585 574 1151 1251 1604 1918 70 103 87 123 91
105 2 -13 11 -97 20 -187 137 -1374 867 -2497 1891 -2909 485 -195 1084 -250
1695 -156 375 58 794 193 1130 364 168 86 205 105 210 110 3 3 46 29 95 59
363 218 768 546 1064 864 398 428 716 895 1026 1512 212 420 390 851 544 1318
l63 187 47 0 48 0 6 -372 c6 -390 14 -519 48 -833 99 -915 355 -1635 757
-2135 96 -119 330 -354 442 -444 566 -452 1242 -649 2045 -597 783 51 1410
270 1974 689 686 509 1403 1488 1974 2697 164 348 397 890 397 925 0 9 -24 39
-52 67 l-53 52 -120 -81 c-141 -94 -362 -205 -492 -247 -148 -48 -252 -65
-403 -64 -219 0 -384 35 -545 115 -388 191 -576 608 -635 1413 -5 79 -10 489
-10 940 0 1020 14 1971 55 3775 16 693 45 3788 45 4700 -1 1534 -82 2800 -220
3429 -182 825 -648 1478 -1288 1804 -513 262 -1272 393 -2152 374 -305 -7
-454 -18 -740 -53 -1108 -137 -2284 -561 -3405 -1227 -1290 -767 -2405 -1893
-3332 -3367 -939 -1492 -1495 -3236 -1682 -5280 -28 -302 -36 -434 -25 -428 5
2 1140 461 2522 1019 l2513 1014 -5 50 c-16 148 -69 968 -91 1400 -31 638 -36
807 -42 1510 -6 734 1 1044 33 1435 58 726 174 1311 344 1740 44 111 114 265
136 298 l15 23 57 -32 c31 -18 59 -35 62 -38 3 -3 21 -15 40 -25 65 -36 216
-154 314 -247 432 -409 808 -1124 1021 -1944 149 -572 258 -1357 310 -2245 32
-560 39 -894 39 -2149 l1 -1264 -410 -186 c-1583 -722 -2855 -1362 -3790
-1909 -844 -493 -1447 -944 -1995 -1492 -698 -697 -1100 -1343 -1325 -2127
-79 -276 -134 -586 -172 -968 l-8 -80 -155 -22 c-553 -80 -1154 -120 -1408
-94 -541 55 -1007 318 -1424 801 -438 509 -657 1217 -740 2395 -23 327 -9
6362 22 9220 10 915 32 2619 34 2622 0 1 809 160 1796 353 987 193 1805 354
1818 357 22 5 22 6 22 204 l0 199 -1820 0 -1820 0 0 3215 0 3215 -198 0 -198
0 -2233 -3215z m14009 -15690 l0 -2826 -47 -20 c-89 -38 -282 -100 -390 -125
-342 -79 -748 -13 -1052 171 -359 217 -640 621 -755 1085 -42 170 -57 293 -63
512 -13 476 77 916 297 1453 64 156 262 549 350 695 366 609 867 1190 1519
1763 73 64 135 117 137 117 2 0 4 -1271 4 -2825z"/>
<path d="M66695 50343 c-2267 -95 -4190 -804 -5822 -2145 -460 -378 -946 -853
-1328 -1298 -1066 -1242 -1869 -2768 -2426 -4610 -503 -1663 -749 -3426 -749
-5370 0 -2980 539 -5456 1644 -7559 767 -1460 1687 -2578 2817 -3424 442 -330
842 -578 1314 -813 245 -122 273 -135 445 -207 837 -353 1687 -551 2600 -607
214 -13 803 -13 1023 0 1236 74 2343 380 3402 940 265 141 411 225 673 388
830 519 1549 1152 2177 1917 547 667 944 1316 1226 2005 l67 164 -30 42 c-17
24 -42 57 -57 74 l-26 32 -195 -21 c-547 -58 -802 -72 -1398 -78 -661 -7
-1022 10 -1547 72 -1472 175 -2740 636 -3804 1382 -677 476 -1366 1142 -1912
1848 -694 898 -1220 1900 -1621 3085 -689 2041 -1016 4352 -968 6852 36 1838
225 3485 607 5283 30 143 58 266 62 272 7 13 59 -46 606 -682 2114 -2458 3743
-4519 5081 -6430 547 -780 1369 -2017 1748 -2627 l48 -78 79 0 78 0 10 38 c5
20 598 2350 1316 5177 718 2827 1308 5148 1311 5157 6 20 26 11 -351 163
-1573 632 -3181 977 -4925 1055 -200 9 -990 11 -1175 3z"/>
<path d="M16300 49670 c0 -97 3 -118 29 -182 186 -471 343 -1100 440 -1768
104 -714 149 -1378 193 -2840 16 -534 24 -13350 9 -14450 -17 -1209 -43 -1930
-97 -2620 -83 -1086 -275 -2042 -543 -2713 -28 -70 -31 -88 -31 -187 l0 -109
5788 -4 c3966 -3 5875 -8 6067 -15 1395 -55 2340 -147 3165 -308 105 -20 206
-34 252 -34 l76 0 6 63 c3 34 107 2843 230 6242 124 3399 228 6215 230 6258
l5 78 -61 -3 -61 -3 -294 -480 c-2982 -4860 -5437 -8437 -7437 -10839 l-249
-299 -14 27 c-32 60 -165 486 -217 691 -330 1313 -503 3276 -546 6180 -13 862
-13 10316 0 11095 27 1670 100 2785 236 3605 147 890 394 1669 726 2288 39 72
77 141 84 152 10 14 14 57 14 152 l0 133 -4000 0 -4000 0 0 -110z"/>
<path d="M109448 43273 l-3268 -1696 0 -115 0 -114 58 -62 c603 -645 975
-2089 1082 -4206 28 -549 32 -870 37 -2875 10 -4170 -23 -5815 -143 -7015 -84
-851 -221 -1526 -410 -2030 -53 -142 -54 -146 -54 -252 l0 -108 3375 0 3375 0
0 113 c0 102 -3 119 -31 187 -88 215 -193 582 -263 925 -178 868 -259 1903
-296 3770 -6 296 -10 3402 -10 7833 l0 7342 -92 0 -93 0 -3267 -1697z"/>
<path d="M42285 44919 c-863 -49 -1750 -265 -2650 -646 -238 -101 -754 -354
-985 -483 -742 -416 -1346 -870 -1958 -1474 -663 -654 -1243 -1398 -1746
-2239 -822 -1375 -1327 -2961 -1530 -4807 -32 -283 -59 -614 -54 -662 l3 -36
2515 1017 2515 1017 -3 39 c-1 22 -11 166 -22 320 -128 1814 -150 3234 -64
4175 56 617 165 1158 310 1544 39 102 155 361 168 374 5 4 147 -76 156 -88 3
-3 12 -9 21 -12 40 -15 235 -174 335 -273 434 -430 795 -1139 1003 -1970 124
-496 223 -1182 275 -1905 48 -654 56 -1023 56 -2435 l0 -1260 -143 -64 c-2197
-989 -3972 -1916 -4877 -2549 -475 -331 -806 -607 -1175 -976 -701 -702 -1103
-1348 -1324 -2131 -126 -448 -181 -868 -181 -1390 0 -495 46 -895 150 -1302
228 -896 735 -1641 1390 -2048 895 -554 2229 -523 3332 79 609 332 1195 846
1631 1430 473 634 865 1417 1186 2371 l61 180 50 3 50 3 0 -288 c1 -1238 236
-2235 681 -2883 99 -145 187 -249 339 -401 162 -163 282 -262 447 -371 142
-93 152 -99 308 -174 415 -199 872 -288 1390 -270 696 23 1280 184 1808 498
55 32 101 58 103 58 2 0 12 7 21 15 10 8 65 48 123 88 561 397 1158 1133 1685
2077 110 197 308 591 418 830 130 284 317 728 317 753 0 7 -24 36 -53 65 l-53
52 -129 -86 c-221 -146 -459 -251 -662 -290 -116 -23 -335 -23 -462 0 -379 67
-629 269 -771 623 -71 177 -124 417 -155 694 -29 263 -37 595 -30 1309 11
1274 24 2063 60 3685 20 915 49 4481 41 5060 -18 1298 -83 2264 -191 2850
-119 646 -374 1150 -787 1557 -359 354 -825 566 -1490 677 -416 70 -979 97
-1453 70z m-1655 -13012 l0 -2823 -137 -51 c-263 -97 -439 -129 -653 -119
-577 26 -1031 340 -1305 901 -102 208 -167 439 -195 690 -16 145 -13 467 5
620 94 792 515 1695 1154 2475 174 212 303 353 545 595 219 219 560 534 579
535 4 0 7 -1270 7 -2823z"/>
<path d="M83230 44924 c-313 -21 -402 -29 -575 -50 -742 -93 -1518 -315 -2290
-654 -194 -85 -649 -311 -835 -415 -1188 -663 -2171 -1536 -3040 -2700 -641
-859 -1118 -1715 -1475 -2645 -380 -993 -638 -2118 -759 -3310 -23 -219 -50
-570 -45 -575 3 -3 5019 2018 5036 2030 1 0 -11 185 -27 411 -112 1556 -142
3016 -80 3899 46 656 146 1224 290 1657 49 147 135 351 185 440 l27 48 31 -17
c156 -80 321 -206 483 -367 229 -230 411 -491 589 -845 344 -689 539 -1478
649 -2631 76 -797 99 -1536 94 -3094 l-3 -990 -173 -78 c-1762 -793 -3347
-1597 -4310 -2185 -1035 -631 -1856 -1360 -2409 -2139 -180 -253 -375 -612
-487 -895 -232 -591 -339 -1234 -323 -1939 14 -564 84 -1009 231 -1455 178
-540 445 -989 811 -1364 548 -561 1234 -823 2095 -798 304 9 539 41 821 112
390 98 811 281 1156 502 29 18 56 33 62 33 5 0 11 4 13 8 2 5 32 28 68 52 370
247 762 602 1065 965 434 519 825 1201 1144 1992 81 202 222 590 261 721 l22
72 47 0 48 0 6 -367 c6 -368 14 -510 42 -783 100 -956 350 -1672 766 -2190 46
-58 142 -164 214 -235 525 -527 1132 -784 1915 -811 674 -24 1377 134 1920
431 52 29 110 61 129 71 19 11 40 22 45 27 6 4 59 40 118 80 302 205 563 449
868 812 574 683 1118 1639 1576 2770 l53 130 -56 57 c-32 32 -61 54 -67 50 -6
-4 -60 -40 -121 -80 -353 -234 -670 -330 -996 -302 -421 35 -709 225 -868 572
-92 201 -148 437 -188 798 -16 150 -18 265 -17 1305 0 627 6 1428 13 1780 11
609 17 890 41 1950 13 569 40 3622 40 4490 0 1455 -62 2564 -181 3280 -106
636 -357 1161 -749 1569 -447 465 -1074 708 -2035 786 -131 11 -762 21 -865
14z m-1740 -13009 l0 -2826 -47 -20 c-84 -37 -305 -106 -413 -131 -147 -32
-414 -32 -570 1 -291 62 -519 183 -725 387 -283 278 -461 645 -532 1094 -25
161 -25 584 0 755 107 721 438 1476 955 2175 252 340 596 723 933 1036 168
157 389 354 396 354 2 0 3 -1271 3 -2825z"/>
<path d="M92387 43003 l-3017 -1928 0 -128 c0 -125 1 -130 29 -170 174 -255
332 -745 430 -1332 109 -652 155 -1291 203 -2835 16 -509 23 -11856 9 -12730
-28 -1609 -88 -2476 -222 -3210 -83 -457 -213 -910 -347 -1210 l-56 -125 -3
-123 -4 -122 3520 0 3521 0 0 109 c0 108 0 108 -46 207 -375 801 -642 2072
-748 3569 -37 516 -80 1635 -63 1635 3 0 56 -20 119 -44 827 -320 1769 -420
2578 -275 263 47 613 151 865 256 113 48 305 135 340 155 18 11 119 66 237
130 23 13 47 26 52 31 6 4 87 57 181 118 627 411 1239 998 1755 1684 571 760
1059 1656 1484 2723 830 2085 1298 4409 1441 7162 31 597 39 959 39 1685 1
740 -6 967 -40 1455 -161 2323 -753 3870 -1778 4648 -423 321 -905 505 -1501
574 -170 19 -637 16 -815 -5 -824 -102 -1553 -426 -2290 -1018 -249 -200 -405
-343 -711 -648 -475 -476 -848 -913 -1317 -1543 -153 -205 -428 -591 -507
-710 l-38 -58 -83 0 -84 0 0 2000 0 2000 -58 0 -59 0 -3016 -1927z m3988
-2637 c706 -103 1265 -498 1707 -1206 302 -485 540 -1106 767 -2002 480 -1893
649 -4297 495 -7068 -84 -1519 -293 -3146 -520 -4050 -52 -210 -126 -466 -137
-477 -7 -7 -264 132 -389 211 -880 553 -1459 1318 -1823 2410 -289 865 -499
2044 -629 3526 -156 1776 -243 4409 -249 7560 l-2 1084 40 9 c135 28 553 30
740 3z"/>
<path d="M156060 44924 c-25 -2 -103 -9 -175 -14 -814 -66 -1699 -373 -2553
-886 -790 -475 -1407 -1007 -2007 -1729 -691 -832 -1375 -2028 -1795 -3140
-487 -1286 -756 -2723 -842 -4490 -15 -324 -15 -1419 0 -1735 61 -1238 197
-2187 447 -3113 224 -834 552 -1609 993 -2347 457 -766 1017 -1413 1647 -1905
206 -162 598 -412 850 -545 163 -85 197 -102 345 -170 983 -453 2024 -658
3143 -620 701 25 1307 127 1905 321 503 164 898 351 1455 688 65 39 120 71
122 71 3 0 13 6 22 14 10 8 101 70 203 137 303 201 626 451 884 685 480 433
1065 1143 1389 1684 75 126 217 405 217 427 0 12 -63 103 -100 146 -4 5 -54
-1 -111 -12 -552 -110 -1194 -171 -1654 -158 -686 20 -1340 174 -1995 472
-569 258 -1212 687 -1743 1163 -635 570 -1178 1454 -1587 2587 -219 606 -405
1297 -559 2073 -75 376 -211 1206 -200 1217 2 1 1656 -125 3674 -281 2019
-156 3679 -284 3690 -284 15 0 64 67 197 268 l177 267 11 160 c18 241 25 1447
11 1786 -72 1768 -370 3127 -931 4249 -289 578 -628 1050 -1085 1505 -885 885
-1934 1370 -3225 1490 -155 15 -720 28 -820 19z m-1671 -1325 c611 -391 1151
-934 1584 -1594 635 -968 1133 -2383 1317 -3740 52 -391 78 -740 87 -1176 l6
-326 -74 -6 c-41 -4 -744 -37 -1562 -73 -1170 -53 -1490 -65 -1496 -55 -13 21
-61 501 -86 861 -43 631 -55 1062 -55 2065 0 1521 38 2617 125 3620 29 333 46
485 53 485 3 0 48 -28 101 -61z"/>
<path d="M156188 21973 c-371 -461 -677 -843 -681 -850 -5 -7 88 -87 253 -218
144 -114 263 -206 264 -204 186 199 1446 1597 1445 1604 0 8 -526 449 -588
493 -16 11 -81 -66 -693 -825z"/>
<path d="M102290 21799 c-674 -53 -1197 -251 -1562 -589 -298 -276 -485 -655
-542 -1098 -19 -144 -21 -482 -5 -630 20 -191 84 -423 155 -563 83 -165 273
-381 449 -512 97 -71 254 -157 375 -205 185 -73 574 -175 945 -248 127 -25
345 -68 485 -95 727 -144 994 -249 1231 -488 81 -82 103 -111 143 -191 76
-156 89 -221 89 -450 1 -180 -2 -203 -26 -295 -113 -422 -447 -702 -987 -829
-475 -112 -1097 -93 -1592 50 -374 107 -756 312 -1040 556 l-57 49 -114 -143
c-62 -79 -175 -221 -251 -316 -75 -95 -139 -179 -142 -186 -8 -22 206 -188
400 -310 510 -320 1081 -496 1771 -547 179 -13 647 -7 810 11 842 90 1439 400
1777 920 101 155 175 328 222 517 97 385 82 896 -35 1229 -129 367 -431 690
-814 869 -249 117 -731 261 -1152 344 -693 138 -1053 231 -1252 323 -186 85
-386 247 -460 371 -44 75 -79 163 -98 250 -20 90 -22 332 -4 437 69 396 317
686 727 850 348 139 881 182 1297 105 362 -67 738 -228 1117 -480 74 -49 120
-73 128 -68 14 9 472 634 472 645 0 4 -46 38 -102 76 -516 345 -1043 549
-1618 627 -139 19 -576 27 -740 14z"/>
<path d="M148650 18280 l0 -3460 420 0 420 0 0 1605 c0 1077 4 1637 11 1702
52 470 317 774 766 879 134 32 406 44 557 25 186 -24 366 -87 500 -176 252
-167 416 -467 455 -833 8 -70 11 -590 11 -1652 l0 -1550 420 0 421 0 -4 1643
c-4 1777 -2 1718 -58 1997 -148 735 -578 1208 -1214 1334 -202 40 -482 48
-689 21 -463 -61 -865 -290 -1122 -639 l-49 -68 -3 1316 -2 1316 -420 0 -420
0 0 -3460z"/>
<path d="M113620 19824 c-14 -2 -59 -9 -100 -15 -253 -36 -522 -143 -723 -286
-102 -73 -244 -213 -325 -321 l-62 -83 0 320 0 321 -420 0 -420 0 0 -3475 0
-3475 420 0 420 0 2 1306 3 1306 49 -77 c67 -106 208 -250 317 -325 264 -181
596 -270 1004 -270 486 0 869 136 1162 413 290 275 455 639 530 1168 21 149
31 1482 13 1734 -19 275 -54 464 -125 681 -205 626 -646 994 -1285 1073 -78
10 -402 13 -460 5z m118 -750 c432 -64 735 -328 856 -747 62 -212 61 -201 61
-1042 0 -684 -2 -780 -17 -860 -74 -391 -252 -656 -539 -805 -296 -153 -726
-172 -1033 -47 -327 134 -556 424 -633 804 -16 80 -18 160 -18 918 0 899 0
895 56 1067 130 401 434 655 858 717 95 14 298 12 409 -5z"/>
<path d="M118545 19823 c-90 -7 -309 -45 -394 -68 -809 -217 -1300 -854 -1406
-1825 -10 -91 -18 -288 -22 -530 -8 -582 14 -895 86 -1177 208 -819 767 -1312
1635 -1444 171 -26 511 -36 666 -20 464 49 921 234 1296 527 85 66 229 195
229 204 -1 3 -125 128 -277 279 l-276 274 -69 -62 c-220 -200 -535 -356 -838
-418 -124 -25 -477 -25 -612 0 -393 74 -676 258 -853 556 -113 190 -174 418
-195 729 l-7 92 1627 0 1627 0 -5 423 c-5 450 -13 550 -63 807 -93 474 -276
856 -544 1134 -288 298 -644 468 -1082 515 -89 10 -426 13 -523 4z m400 -763
c435 -50 733 -281 900 -699 70 -176 125 -456 125 -637 l0 -74 -1228 0 -1227 0
7 117 c17 263 76 485 184 693 109 210 304 398 509 490 210 94 492 137 730 110z"/>
<path d="M124080 19814 c-260 -40 -498 -136 -723 -294 -103 -72 -319 -281
-390 -378 l-47 -64 0 341 0 341 -420 0 -420 0 0 -2470 0 -2470 420 0 419 0 4
1663 c3 1649 3 1663 24 1752 60 257 167 439 340 576 141 112 317 184 524 215
140 20 432 15 549 -11 191 -42 345 -116 460 -222 38 -35 72 -63 77 -63 5 0
130 161 278 357 l269 357 -50 43 c-198 175 -483 293 -804 332 -117 15 -396 12
-510 -5z"/>
<path d="M128250 19824 c-95 -12 -260 -48 -342 -75 -103 -33 -256 -103 -333
-152 -158 -99 -329 -260 -440 -415 l-60 -82 -3 330 -2 330 -415 0 -415 0 0
-2470 0 -2470 415 0 414 0 4 1653 c4 1780 1 1696 53 1875 92 315 310 538 624
637 233 73 565 75 803 4 94 -28 230 -99 307 -162 203 -165 340 -440 379 -762
8 -62 11 -586 11 -1667 l0 -1578 420 0 420 0 0 1563 c0 952 4 1599 10 1657 50
485 273 806 650 938 227 79 557 84 800 12 315 -94 551 -339 654 -680 63 -211
60 -96 63 -1872 l4 -1618 420 0 420 0 -4 1648 c-4 1799 -1 1704 -62 2009 -51
250 -152 501 -282 698 -124 187 -346 385 -543 485 -155 78 -368 138 -570 160
-158 18 -455 8 -582 -19 -305 -66 -551 -202 -783 -435 -134 -135 -220 -247
-311 -406 l-53 -92 -55 118 c-81 170 -172 301 -296 425 -202 202 -426 322
-721 385 -108 22 -152 26 -344 29 -121 2 -236 1 -255 -1z"/>
<path d="M136085 19824 c-16 -2 -73 -9 -125 -15 -449 -50 -899 -238 -1201
-502 -89 -78 -179 -175 -179 -192 1 -9 548 -389 589 -408 13 -6 43 9 117 58
490 330 1218 419 1649 202 192 -96 332 -241 426 -441 78 -167 109 -336 109
-598 l0 -177 -862 -4 c-886 -4 -929 -6 -1138 -47 -541 -105 -910 -409 -1058
-870 -107 -336 -104 -796 8 -1132 165 -494 591 -813 1220 -912 183 -29 359
-39 595 -33 394 10 661 66 923 194 95 46 221 130 280 186 l32 31 0 -172 0
-172 410 0 411 0 -4 1708 -3 1707 -22 138 c-133 818 -640 1301 -1507 1433 -95
15 -596 28 -670 18z m1383 -3376 l-3 -583 -30 -53 c-86 -157 -300 -254 -675
-308 -147 -22 -618 -30 -762 -14 -460 51 -748 247 -835 570 -14 49 -18 104
-18 225 0 179 17 264 78 380 46 89 173 211 267 257 91 45 229 85 330 97 41 5
430 9 863 10 l788 1 -3 -582z"/>
<path d="M141780 19820 c-460 -63 -879 -316 -1167 -705 l-22 -30 -1 338 0 337
-420 0 -420 0 0 -2470 0 -2470 420 0 420 0 0 1631 c0 1116 3 1653 11 1702 57
379 254 653 569 788 181 78 347 104 605 96 182 -6 260 -18 385 -59 131 -42
283 -132 359 -212 19 -20 40 -36 45 -35 6 0 132 161 279 357 l268 357 -43 37
c-169 148 -405 260 -662 314 -104 22 -152 26 -341 29 -121 2 -249 0 -285 -5z"/>
<path d="M145425 19814 c-767 -86 -1291 -436 -1564 -1042 -75 -168 -137 -400
-173 -647 -19 -131 -19 -1508 0 -1650 39 -286 111 -538 217 -750 289 -578 833
-902 1620 -966 205 -16 548 -7 728 21 477 72 858 246 1142 522 61 59 132 134
158 166 l46 59 -167 164 c-92 90 -221 217 -288 282 l-120 118 -105 -103 c-222
-218 -474 -353 -783 -420 -87 -19 -133 -22 -326 -22 -170 -1 -247 3 -315 16
-297 56 -499 158 -668 338 -160 171 -258 389 -304 682 -16 99 -18 186 -18 713
0 636 3 686 49 875 55 221 141 384 281 526 171 174 346 261 643 321 69 14 136
18 322 18 205 -1 248 -3 332 -22 295 -66 522 -190 741 -402 l117 -114 23 20
c20 18 559 494 581 514 12 10 -87 133 -189 234 -290 287 -676 464 -1180 542
-145 22 -629 27 -800 7z"/>
<path d="M155700 19815 c-282 -34 -526 -107 -740 -222 -591 -317 -930 -914
-1000 -1764 -18 -213 -8 -1161 14 -1309 142 -974 701 -1570 1621 -1729 274
-48 651 -53 890 -12 404 69 812 248 1135 500 107 84 240 200 240 210 0 4 -125
129 -278 278 l-279 271 -74 -64 c-175 -152 -411 -287 -617 -354 -194 -62 -276
-74 -512 -74 -251 0 -348 13 -535 75 -198 66 -341 154 -477 297 -87 91 -139
166 -195 277 -91 181 -153 451 -153 667 l0 78 1626 0 1627 0 -6 383 c-8 490
-28 685 -104 997 -190 785 -666 1300 -1348 1458 -219 51 -585 67 -835 37z
m580 -771 c387 -73 676 -342 816 -759 54 -163 81 -313 99 -547 l7 -88 -1231 0
-1231 0 0 45 c0 72 19 231 41 339 74 366 249 656 500 827 148 100 371 177 572
198 119 12 322 5 427 -15z"/>
<path d="M106160 18203 c0 -979 4 -1610 10 -1698 35 -460 140 -803 341 -1105
76 -114 260 -303 370 -377 287 -196 631 -283 1063 -270 422 13 716 114 1011
347 84 67 212 202 273 290 l52 73 0 -321 0 -322 415 0 415 0 0 2470 0 2470
-415 0 -415 0 0 -1597 c0 -1023 -4 -1630 -10 -1688 -45 -394 -222 -664 -534
-815 -172 -83 -352 -120 -585 -120 -355 0 -624 95 -821 290 -161 159 -242 319
-303 590 -21 94 -21 109 -24 1718 l-4 1622 -419 0 -420 0 0 -1557z"/>
</g>
</svg>
